<svg xmlns="http://www.w3.org/2000/svg" xmlns:xlink="http://www.w3.org/1999/xlink" width="500" zoomAndPan="magnify" viewBox="0 0 375 374.999991" height="500" preserveAspectRatio="xMidYMid meet" version="1.0"><defs><g/></defs><g fill="#6a4c93" fill-opacity="1"><g transform="translate(90.70249, 92.614661)"><g><path d="M 54.0625 -18.421875 C 57.164062 -18.421875 60.179688 -18.890625 63.109375 -19.828125 C 66.035156 -20.765625 68.1875 -21.664062 69.5625 -22.53125 L 71.609375 -23.9375 L 80.28125 -6.609375 C 79.988281 -6.390625 79.585938 -6.097656 79.078125 -5.734375 C 78.578125 -5.378906 77.40625 -4.710938 75.5625 -3.734375 C 73.726562 -2.765625 71.757812 -1.914062 69.65625 -1.1875 C 67.5625 -0.46875 64.816406 0.175781 61.421875 0.75 C 58.035156 1.332031 54.535156 1.625 50.921875 1.625 C 42.617188 1.625 34.742188 -0.414062 27.296875 -4.5 C 19.859375 -8.582031 13.863281 -14.195312 9.3125 -21.34375 C 4.757812 -28.488281 2.484375 -36.21875 2.484375 -44.53125 C 2.484375 -50.8125 3.820312 -56.84375 6.5 -62.625 C 9.175781 -68.40625 12.734375 -73.351562 17.171875 -77.46875 C 21.609375 -81.582031 26.789062 -84.867188 32.71875 -87.328125 C 38.644531 -89.785156 44.710938 -91.015625 50.921875 -91.015625 C 56.703125 -91.015625 62.03125 -90.328125 66.90625 -88.953125 C 71.78125 -87.578125 75.226562 -86.203125 77.25 -84.828125 L 80.28125 -82.78125 L 71.609375 -65.4375 C 71.109375 -65.875 70.351562 -66.398438 69.34375 -67.015625 C 68.332031 -67.628906 66.304688 -68.441406 63.265625 -69.453125 C 60.234375 -70.460938 57.164062 -70.96875 54.0625 -70.96875 C 49.15625 -70.96875 44.75 -70.171875 40.84375 -68.578125 C 36.945312 -66.992188 33.859375 -64.898438 31.578125 -62.296875 C 29.304688 -59.691406 27.570312 -56.890625 26.375 -53.890625 C 25.1875 -50.898438 24.59375 -47.851562 24.59375 -44.75 C 24.59375 -37.957031 27.140625 -31.867188 32.234375 -26.484375 C 37.328125 -21.109375 44.601562 -18.421875 54.0625 -18.421875 Z M 54.0625 -18.421875 "/></g></g></g><g fill="#6a4c93" fill-opacity="1"><g transform="translate(162.086993, 92.614661)"><g><path d="M 6.5 0 L 6.5 -93.171875 L 25.671875 -93.171875 L 25.671875 0 Z M 6.5 0 "/></g></g></g><g fill="#6a4c93" fill-opacity="1"><g transform="translate(184.075107, 92.614661)"><g><path d="M 11.75 -6.609375 C 5.570312 -12.097656 2.484375 -19.140625 2.484375 -27.734375 C 2.484375 -36.328125 5.695312 -43.382812 12.125 -48.90625 C 18.5625 -54.4375 26.507812 -57.203125 35.96875 -57.203125 C 45.289062 -57.203125 53.144531 -54.421875 59.53125 -48.859375 C 65.925781 -43.296875 69.125 -36.253906 69.125 -27.734375 C 69.125 -19.210938 66 -12.1875 59.75 -6.65625 C 53.5 -1.132812 45.570312 1.625 35.96875 1.625 C 26 1.625 17.925781 -1.117188 11.75 -6.609375 Z M 26.59375 -37.15625 C 24.101562 -34.707031 22.859375 -31.566406 22.859375 -27.734375 C 22.859375 -23.910156 24.050781 -20.785156 26.4375 -18.359375 C 28.820312 -15.941406 31.960938 -14.734375 35.859375 -14.734375 C 39.617188 -14.734375 42.707031 -15.960938 45.125 -18.421875 C 47.539062 -20.878906 48.75 -23.984375 48.75 -27.734375 C 48.75 -31.566406 47.503906 -34.707031 45.015625 -37.15625 C 42.523438 -39.613281 39.472656 -40.84375 35.859375 -40.84375 C 32.179688 -40.84375 29.09375 -39.613281 26.59375 -37.15625 Z M 26.59375 -37.15625 "/></g></g></g><g fill="#6a4c93" fill-opacity="1"><g transform="translate(245.493687, 92.614661)"><g><path d="M 30.65625 -57.203125 C 33.832031 -57.203125 36.972656 -56.835938 40.078125 -56.109375 C 43.191406 -55.390625 45.503906 -54.671875 47.015625 -53.953125 L 49.296875 -52.875 L 43.015625 -40.296875 C 38.679688 -42.609375 34.5625 -43.765625 30.65625 -43.765625 C 28.488281 -43.765625 26.953125 -43.53125 26.046875 -43.0625 C 25.148438 -42.59375 24.703125 -41.707031 24.703125 -40.40625 C 24.703125 -40.125 24.738281 -39.835938 24.8125 -39.546875 C 24.882812 -39.253906 25.023438 -38.984375 25.234375 -38.734375 C 25.453125 -38.484375 25.648438 -38.265625 25.828125 -38.078125 C 26.015625 -37.898438 26.320312 -37.703125 26.75 -37.484375 C 27.1875 -37.265625 27.53125 -37.101562 27.78125 -37 C 28.039062 -36.894531 28.457031 -36.734375 29.03125 -36.515625 C 29.613281 -36.296875 30.046875 -36.128906 30.328125 -36.015625 C 30.617188 -35.910156 31.109375 -35.75 31.796875 -35.53125 C 32.484375 -35.320312 33.007812 -35.179688 33.375 -35.109375 C 35.613281 -34.453125 37.5625 -33.726562 39.21875 -32.9375 C 40.882812 -32.144531 42.632812 -31.0625 44.46875 -29.6875 C 46.3125 -28.3125 47.738281 -26.578125 48.75 -24.484375 C 49.757812 -22.390625 50.265625 -20.003906 50.265625 -17.328125 C 50.265625 -4.691406 41.488281 1.625 23.9375 1.625 C 19.96875 1.625 16.195312 1.007812 12.625 -0.21875 C 9.050781 -1.445312 6.46875 -2.675781 4.875 -3.90625 L 2.484375 -5.84375 L 10.296875 -18.953125 C 10.867188 -18.453125 11.625 -17.859375 12.5625 -17.171875 C 13.5 -16.484375 15.195312 -15.539062 17.65625 -14.34375 C 20.113281 -13.15625 22.242188 -12.5625 24.046875 -12.5625 C 28.023438 -12.5625 30.015625 -13.898438 30.015625 -16.578125 C 30.015625 -17.804688 29.507812 -18.765625 28.5 -19.453125 C 27.488281 -20.140625 25.769531 -20.914062 23.34375 -21.78125 C 20.925781 -22.644531 19.03125 -23.4375 17.65625 -24.15625 C 14.1875 -25.96875 11.441406 -28.007812 9.421875 -30.28125 C 7.398438 -32.550781 6.390625 -35.566406 6.390625 -39.328125 C 6.390625 -44.960938 8.570312 -49.347656 12.9375 -52.484375 C 17.3125 -55.628906 23.21875 -57.203125 30.65625 -57.203125 Z M 30.65625 -57.203125 "/></g></g></g><g fill="#6a4c93" fill-opacity="1"><g transform="translate(130.178299, 183.805423)"><g><path d="M 62.734375 -25.140625 L 22.421875 -25.140625 C 22.421875 -21.234375 23.6875 -18.34375 26.21875 -16.46875 C 28.75 -14.59375 31.492188 -13.65625 34.453125 -13.65625 C 37.554688 -13.65625 40.007812 -14.066406 41.8125 -14.890625 C 43.625 -15.722656 45.6875 -17.367188 48 -19.828125 L 61.859375 -12.890625 C 56.085938 -3.210938 46.484375 1.625 33.046875 1.625 C 24.671875 1.625 17.484375 -1.242188 11.484375 -6.984375 C 5.484375 -12.722656 2.484375 -19.640625 2.484375 -27.734375 C 2.484375 -35.828125 5.484375 -42.757812 11.484375 -48.53125 C 17.484375 -54.3125 24.671875 -57.203125 33.046875 -57.203125 C 41.859375 -57.203125 49.023438 -54.65625 54.546875 -49.5625 C 60.078125 -44.46875 62.84375 -37.191406 62.84375 -27.734375 C 62.84375 -26.429688 62.804688 -25.566406 62.734375 -25.140625 Z M 22.96875 -35.75 L 44.09375 -35.75 C 43.664062 -38.644531 42.53125 -40.867188 40.6875 -42.421875 C 38.84375 -43.972656 36.476562 -44.75 33.59375 -44.75 C 30.40625 -44.75 27.875 -43.914062 26 -42.25 C 24.125 -40.59375 23.113281 -38.425781 22.96875 -35.75 Z M 22.96875 -35.75 "/></g></g></g><g fill="#6a4c93" fill-opacity="1"><g transform="translate(185.313984, 183.805423)"><g><path d="M 10.28125 -6.875 C 5.082031 -12.550781 2.484375 -19.503906 2.484375 -27.734375 C 2.484375 -35.972656 5.082031 -42.941406 10.28125 -48.640625 C 15.488281 -54.347656 22.101562 -57.203125 30.125 -57.203125 C 37.488281 -57.203125 43.554688 -54.890625 48.328125 -50.265625 L 48.328125 -93.171875 L 67.5 -93.171875 L 67.5 0 L 48.53125 0 L 48.53125 -6.28125 L 48.328125 -6.28125 C 43.554688 -1.007812 37.488281 1.625 30.125 1.625 C 22.101562 1.625 15.488281 -1.207031 10.28125 -6.875 Z M 26.59375 -37.15625 C 24.101562 -34.707031 22.859375 -31.566406 22.859375 -27.734375 C 22.859375 -23.910156 24.050781 -20.785156 26.4375 -18.359375 C 28.820312 -15.941406 31.960938 -14.734375 35.859375 -14.734375 C 39.617188 -14.734375 42.707031 -15.960938 45.125 -18.421875 C 47.539062 -20.878906 48.75 -23.984375 48.75 -27.734375 C 48.75 -31.566406 47.503906 -34.707031 45.015625 -37.15625 C 42.523438 -39.613281 39.472656 -40.84375 35.859375 -40.84375 C 32.179688 -40.84375 29.09375 -39.613281 26.59375 -37.15625 Z M 26.59375 -37.15625 "/></g></g></g><g fill="#6a4c93" fill-opacity="1"><g transform="translate(88.967089, 274.996185)"><g><path d="M 2.484375 -44.75 C 2.484375 -57.675781 6.890625 -68.617188 15.703125 -77.578125 C 24.515625 -86.535156 35.132812 -91.015625 47.5625 -91.015625 C 60.0625 -91.015625 70.679688 -86.550781 79.421875 -77.625 C 88.160156 -68.707031 92.53125 -57.75 92.53125 -44.75 C 92.53125 -31.675781 88.226562 -20.675781 79.625 -11.75 C 71.03125 -2.832031 60.34375 1.625 47.5625 1.625 C 34.488281 1.625 23.707031 -2.796875 15.21875 -11.640625 C 6.726562 -20.492188 2.484375 -31.53125 2.484375 -44.75 Z M 24.484375 -44.75 C 24.484375 -40.050781 25.203125 -35.769531 26.640625 -31.90625 C 28.085938 -28.039062 30.617188 -24.769531 34.234375 -22.09375 C 37.847656 -19.425781 42.289062 -18.09375 47.5625 -18.09375 C 55.144531 -18.09375 60.867188 -20.691406 64.734375 -25.890625 C 68.597656 -31.085938 70.53125 -37.375 70.53125 -44.75 C 70.53125 -52.039062 68.5625 -58.304688 64.625 -63.546875 C 60.6875 -68.785156 55 -71.40625 47.5625 -71.40625 C 40.195312 -71.40625 34.507812 -68.785156 30.5 -63.546875 C 26.488281 -58.304688 24.484375 -52.039062 24.484375 -44.75 Z M 24.484375 -44.75 "/></g></g></g><g fill="#6a4c93" fill-opacity="1"><g transform="translate(173.783944, 274.996185)"><g><path d="M 6.5 0 L 6.5 -55.578125 L 25.671875 -55.578125 L 25.671875 -49.734375 L 25.890625 -49.734375 C 30.878906 -54.710938 36.191406 -57.203125 41.828125 -57.203125 C 44.566406 -57.203125 47.289062 -56.835938 50 -56.109375 C 52.707031 -55.390625 55.304688 -54.269531 57.796875 -52.75 C 60.296875 -51.238281 62.320312 -49.09375 63.875 -46.3125 C 65.425781 -43.53125 66.203125 -40.300781 66.203125 -36.625 L 66.203125 0 L 47.015625 0 L 47.015625 -31.421875 C 47.015625 -34.304688 46.09375 -36.832031 44.25 -39 C 42.414062 -41.164062 40.015625 -42.25 37.046875 -42.25 C 34.160156 -42.25 31.539062 -41.128906 29.1875 -38.890625 C 26.84375 -36.648438 25.671875 -34.160156 25.671875 -31.421875 L 25.671875 0 Z M 6.5 0 "/></g></g></g><g fill="#6a4c93" fill-opacity="1"><g transform="translate(235.202516, 274.996185)"><g><path d="M 62.734375 -25.140625 L 22.421875 -25.140625 C 22.421875 -21.234375 23.6875 -18.34375 26.21875 -16.46875 C 28.75 -14.59375 31.492188 -13.65625 34.453125 -13.65625 C 37.554688 -13.65625 40.007812 -14.066406 41.8125 -14.890625 C 43.625 -15.722656 45.6875 -17.367188 48 -19.828125 L 61.859375 -12.890625 C 56.085938 -3.210938 46.484375 1.625 33.046875 1.625 C 24.671875 1.625 17.484375 -1.242188 11.484375 -6.984375 C 5.484375 -12.722656 2.484375 -19.640625 2.484375 -27.734375 C 2.484375 -35.828125 5.484375 -42.757812 11.484375 -48.53125 C 17.484375 -54.3125 24.671875 -57.203125 33.046875 -57.203125 C 41.859375 -57.203125 49.023438 -54.65625 54.546875 -49.5625 C 60.078125 -44.46875 62.84375 -37.191406 62.84375 -27.734375 C 62.84375 -26.429688 62.804688 -25.566406 62.734375 -25.140625 Z M 22.96875 -35.75 L 44.09375 -35.75 C 43.664062 -38.644531 42.53125 -40.867188 40.6875 -42.421875 C 38.84375 -43.972656 36.476562 -44.75 33.59375 -44.75 C 30.40625 -44.75 27.875 -43.914062 26 -42.25 C 24.125 -40.59375 23.113281 -38.425781 22.96875 -35.75 Z M 22.96875 -35.75 "/></g></g></g><g fill="#6a4c93" fill-opacity="1"><g transform="translate(154.272973, 366.186947)"><g><path d="M 30.65625 -57.203125 C 33.832031 -57.203125 36.972656 -56.835938 40.078125 -56.109375 C 43.191406 -55.390625 45.503906 -54.671875 47.015625 -53.953125 L 49.296875 -52.875 L 43.015625 -40.296875 C 38.679688 -42.609375 34.5625 -43.765625 30.65625 -43.765625 C 28.488281 -43.765625 26.953125 -43.53125 26.046875 -43.0625 C 25.148438 -42.59375 24.703125 -41.707031 24.703125 -40.40625 C 24.703125 -40.125 24.738281 -39.835938 24.8125 -39.546875 C 24.882812 -39.253906 25.023438 -38.984375 25.234375 -38.734375 C 25.453125 -38.484375 25.648438 -38.265625 25.828125 -38.078125 C 26.015625 -37.898438 26.320312 -37.703125 26.75 -37.484375 C 27.1875 -37.265625 27.53125 -37.101562 27.78125 -37 C 28.039062 -36.894531 28.457031 -36.734375 29.03125 -36.515625 C 29.613281 -36.296875 30.046875 -36.128906 30.328125 -36.015625 C 30.617188 -35.910156 31.109375 -35.75 31.796875 -35.53125 C 32.484375 -35.320312 33.007812 -35.179688 33.375 -35.109375 C 35.613281 -34.453125 37.5625 -33.726562 39.21875 -32.9375 C 40.882812 -32.144531 42.632812 -31.0625 44.46875 -29.6875 C 46.3125 -28.3125 47.738281 -26.578125 48.75 -24.484375 C 49.757812 -22.390625 50.265625 -20.003906 50.265625 -17.328125 C 50.265625 -4.691406 41.488281 1.625 23.9375 1.625 C 19.96875 1.625 16.195312 1.007812 12.625 -0.21875 C 9.050781 -1.445312 6.46875 -2.675781 4.875 -3.90625 L 2.484375 -5.84375 L 10.296875 -18.953125 C 10.867188 -18.453125 11.625 -17.859375 12.5625 -17.171875 C 13.5 -16.484375 15.195312 -15.539062 17.65625 -14.34375 C 20.113281 -13.15625 22.242188 -12.5625 24.046875 -12.5625 C 28.023438 -12.5625 30.015625 -13.898438 30.015625 -16.578125 C 30.015625 -17.804688 29.507812 -18.765625 28.5 -19.453125 C 27.488281 -20.140625 25.769531 -20.914062 23.34375 -21.78125 C 20.925781 -22.644531 19.03125 -23.4375 17.65625 -24.15625 C 14.1875 -25.96875 11.441406 -28.007812 9.421875 -30.28125 C 7.398438 -32.550781 6.390625 -35.566406 6.390625 -39.328125 C 6.390625 -44.960938 8.570312 -49.347656 12.9375 -52.484375 C 17.3125 -55.628906 23.21875 -57.203125 30.65625 -57.203125 Z M 30.65625 -57.203125 "/></g></g></g><g fill="#6a4c93" fill-opacity="1"><g transform="translate(197.384548, 366.186947)"><g><path d="M 18.859375 -23.1875 C 22.316406 -23.1875 25.253906 -21.972656 27.671875 -19.546875 C 30.097656 -17.128906 31.3125 -14.1875 31.3125 -10.71875 C 31.3125 -7.332031 30.097656 -4.425781 27.671875 -2 C 25.253906 0.414062 22.316406 1.625 18.859375 1.625 C 15.460938 1.625 12.550781 0.414062 10.125 -2 C 7.707031 -4.425781 6.5 -7.332031 6.5 -10.71875 C 6.5 -14.1875 7.707031 -17.128906 10.125 -19.546875 C 12.550781 -21.972656 15.460938 -23.1875 18.859375 -23.1875 Z M 18.859375 -23.1875 "/></g></g></g></svg>